<svg width="60" height="60" viewBox="0 0 60 60" fill="none" xmlns="http://www.w3.org/2000/svg">
<path fill-rule="evenodd" clip-rule="evenodd" d="M53.2692 13.5041C47.7754 14.6515 25.8058 15.0955 14.4317 14.2888C11.1482 14.056 7.68304 13.7029 6.7308 13.5041C5.48438 13.2435 5 13.2784 5 13.6286C5 14.3979 6.33036 15.959 6.98571 15.959C7.31339 15.959 7.70803 16.4259 7.86205 16.9964C8.1317 17.9965 8.27455 18.0343 11.8165 18.0471C15.4281 18.06 17.0536 18.553 17.0536 19.6356C17.0536 19.8958 16.6638 20.1087 16.1871 20.1087C15.7103 20.1087 15.1964 20.2954 15.0446 20.5237C14.8929 20.7519 13.3746 20.9386 11.6701 20.9386C8.6625 20.9386 8.57143 20.9689 8.57143 21.976C8.57143 22.9927 8.64553 23.0151 12.2545 23.0906L15.9375 23.1682L12.1429 23.4284L8.34821 23.6886L12.0049 23.7662C14.0161 23.8085 15.7455 23.9836 15.8478 24.1546C16.0165 24.4364 14.4393 39.1776 13.6723 44.4879L13.3576 46.6665H15.6522C17.5375 46.6665 17.9473 46.537 17.9513 45.9403C17.954 45.5407 18.0808 44.5141 18.233 43.658L18.5098 42.1019L16.3308 42.0293L14.1518 41.9571L16.008 41.7998L17.8643 41.6429L18.1156 39.2789C18.254 37.9788 18.479 35.1408 18.6161 32.9726C18.7531 30.8044 18.9795 27.9565 19.1192 26.6444L19.3732 24.2584H29.9821H40.5911L40.8594 26.8519C41.0071 28.2785 41.2478 31.7796 41.3937 34.6325C41.6508 39.6576 41.7182 41.1033 42.4072 41.5191C42.6921 41.6911 43.0834 41.6869 43.6384 41.6869C44.5576 41.6869 45.304 41.4508 45.4424 41.1163C45.5719 40.8022 45.2768 36.9376 44.7862 32.5282C44.2955 28.1188 43.9942 24.3608 44.1165 24.1774C44.2384 23.9936 45.9839 23.8085 47.9951 23.7662L51.6518 23.6886L47.8571 23.4284L44.0625 23.1682L47.7455 23.0906C51.3545 23.0151 51.4286 22.9927 51.4286 21.976C51.4286 20.9689 51.3375 20.9386 48.3299 20.9386C46.6254 20.9386 45.1071 20.7519 44.9553 20.5237C44.8036 20.2954 44.2897 20.1087 43.8129 20.1087C42.7906 20.1087 42.6902 19.4576 43.5844 18.6268C44.0366 18.2061 45.3228 18.0339 48.0129 18.0339H51.804L52.0924 16.8126C52.2772 16.0304 52.5946 15.6677 52.9745 15.803C53.5835 16.02 55 14.4992 55 13.6286C55 13.2784 54.5156 13.2435 53.2692 13.5041ZM7.90179 15.2308C7.28795 15.3399 6.78571 15.2681 6.78571 15.0714C6.78571 14.8751 7.28795 14.7141 7.90179 14.7141C8.51562 14.7141 9.01786 14.7859 9.01786 14.8731C9.01786 14.9606 8.51562 15.1216 7.90179 15.2308ZM52.8879 14.9864C52.5857 15.1001 51.983 15.1071 51.5486 15.0017C51.1143 14.8963 51.3616 14.8034 52.0982 14.7951C52.8348 14.7868 53.1902 14.8727 52.8879 14.9864ZM14.933 15.4329C13.8893 15.5204 12.1817 15.5204 11.1384 15.4329C10.0946 15.3457 10.9487 15.2739 13.0357 15.2739C15.1228 15.2739 15.9763 15.3457 14.933 15.4329ZM48.65 15.4308C47.7357 15.52 46.1286 15.5212 45.0786 15.4333C44.0286 15.3457 44.7768 15.2727 46.7411 15.2714C48.7053 15.2698 49.5643 15.3416 48.65 15.4308ZM34.3527 15.8536C31.9589 15.9279 28.0411 15.9279 25.6473 15.8536C23.2536 15.7789 25.212 15.7179 30 15.7179C34.7879 15.7179 36.7464 15.7789 34.3527 15.8536ZM19.2893 19.4169C19.2875 19.1509 19.537 18.8389 19.8437 18.7235C20.1509 18.6086 22.2603 18.4995 24.5312 18.4816L28.6607 18.4488V19.6937V20.9386H25.1781C21.6848 20.9386 19.2955 20.3212 19.2893 19.4169ZM31.3393 20.9386V19.6738V18.409L36.0268 18.4783C40.0335 18.538 40.7138 18.6464 40.7107 19.2248C40.7053 20.3137 38.5576 20.9386 34.8219 20.9386H31.3393ZM35.271 23.738C32.4 23.8102 27.5786 23.8106 24.5567 23.7384C21.5348 23.6666 23.8839 23.6077 29.7768 23.6073C35.6696 23.6073 38.142 23.6658 35.271 23.738ZM46.633 46.6665L46.3245 44.4879C46.1549 43.2895 45.8781 42.216 45.7089 42.1019C45.5402 41.9878 44.5482 41.9517 43.5045 42.0218C41.6236 42.1484 41.6071 42.1637 41.6071 43.7518C41.6071 46.3773 41.883 46.6665 44.3911 46.6665H46.633Z" fill="white"/>
</svg>
